<svg xmlns="http://www.w3.org/2000/svg" viewBox="0 0 512 512" width="512" height="512">
  <!-- Background circle -->
  <circle cx="256" cy="256" r="220" fill="#007bff" stroke="#0056b3" stroke-width="8"/>
  
  <!-- Clipboard background -->
  <rect x="170" y="120" width="172" height="220" rx="15" fill="#ffffff" stroke="#333" stroke-width="3"/>
  
  <!-- Clipboard clip -->
  <rect x="220" y="100" width="72" height="40" rx="8" fill="#666"/>
  
  <!-- Task list items -->
  <g fill="none" stroke="#007bff" stroke-width="4" stroke-linecap="round">
    <!-- Task 1 - Completed -->
    <circle cx="200" cy="160" r="12" fill="#28a745"/>
    <polyline points="193,160 198,165 207,155" stroke="#ffffff" stroke-width="2"/>
    <line x1="225" y1="160" x2="300" y2="160" stroke="#333"/>
    
    <!-- Task 2 - Completed -->
    <circle cx="200" cy="200" r="12" fill="#28a745"/>
    <polyline points="193,200 198,205 207,195" stroke="#ffffff" stroke-width="2"/>
    <line x1="225" y1="200" x2="280" y2="200" stroke="#333"/>
    
    <!-- Task 3 - Pending -->
    <circle cx="200" cy="240" r="12" fill="#ffffff" stroke="#007bff" stroke-width="2"/>
    <line x1="225" y1="240" x2="290" y2="240" stroke="#333"/>
    
    <!-- Task 4 - Pending -->
    <circle cx="200" cy="280" r="12" fill="#ffffff" stroke="#007bff" stroke-width="2"/>
    <line x1="225" y1="280" x2="310" y2="280" stroke="#333"/>
  </g>
  
  <!-- Notification bell -->
  <g transform="translate(320, 140)">
    <path d="M20 35 L-20 35 C-20 35 -20 20 -20 10 C-20 -10 -5 -20 0 -20 C5 -20 20 -10 20 10 C20 20 20 35 20 35 Z" fill="#ffc107" stroke="#f57c00" stroke-width="2"/>
    <rect x="-15" y="35" width="30" height="8" rx="4" fill="#f57c00"/>
    <circle cx="0" cy="44" r="6" fill="#ff5722"/>
  </g>
</svg>